<svg xmlns="http://www.w3.org/2000/svg" viewBox="0 0 800 800"><defs><style>.cls-1{fill:#6da0b0;}.cls-2{fill:#414141;}.cls-3{fill:#fefefe;}.cls-4{fill:#f5c000;}.cls-5{fill:#494949;}.cls-6{fill:#cfcbbb;}.cls-7{fill:#865636;}.cls-8{fill:#fe751c;}.cls-9{fill:#464646;}.cls-10{fill:#454545;}.cls-11{fill:#a7780e;}.cls-12{fill:#8f8f8f;}</style></defs><title>1</title><g id="BACKGROUND"><rect width="800" height="800"/></g><g id="OBJECTS"><path class="cls-1" d="M316.45,418.48c.31,2.71-1.88,3.73-3.71,4.62a19.46,19.46,0,0,1-6.59,1.68c-2.23.22-4.17-.9-6.14-1.66a11.19,11.19,0,0,0-5.66-1.08c-1.92.27-3.43-.68-4.8-1.84a1.82,1.82,0,0,1,.32-3.22,4.36,4.36,0,0,0,2.08-1.81A3,3,0,0,1,294,414c4-.69,7.92-1.65,11.92-1.33,2.9.22,5.9.59,8.52,2.16C316.08,415.83,316.44,416.52,316.45,418.48Z"/><path class="cls-2" d="M318.81,427.05c-.36-.71-1.21-.63-1.67-.59-3.09.27-6.16-.33-9.28,0a23,23,0,0,1-9-1.29c-3.76-1.17-7.66-2-11.08-4.08a6.14,6.14,0,0,1-2-1.69,1.44,1.44,0,0,1,.11-1.92,1.24,1.24,0,0,1,1.72-.17c2.84,1.69,6,2.57,9.05,3.87a21.43,21.43,0,0,0,4.56,1c3.08.58,6.07,1.6,9.3,1.4s6.37,0,9.55-.17a3.41,3.41,0,0,1,1.44.2c.9.35,2,.71,1.86,1.84s-1.43,1-2.3,1.1c-.68.07-1.37-.06-1.91.49Z"/><path class="cls-3" d="M389.57,378c-1.46-.8-2.89-1.68-4.3-2.54a32.81,32.81,0,0,0-7.79-3.89c-5.61-1.65-11.13-3.65-17.09-3.86-2.7-.1-5.35.47-8,.46a34.87,34.87,0,0,0-16.07,4,27.56,27.56,0,0,0-4.87,3.11c-2.32,1.88-4.91,3.43-6.8,5.88-3.07,4-4.47,8.65-6.29,13.15-2,4.86-3.08,10-5.31,14.79a28.14,28.14,0,0,1-6.56,9.22c-1.07,1-1.2,2.07-.43,3.51,1.21,2.28,3.19,3.44,5.31,4.56a1.76,1.76,0,0,1,.4,2.91c-.27.26-.65.41-.92.68-.72.71-1.35,1.37-1,2.63a2.71,2.71,0,0,0,2.24,1.95,4.76,4.76,0,0,0,1.68.15,42.47,42.47,0,0,1,12.14.58,9.18,9.18,0,0,1-1.42.8A36.66,36.66,0,0,1,313.65,438c-2.63.05-4.58,2.21-3.93,4.62a3.54,3.54,0,0,1-.43,3,11.64,11.64,0,0,0-1.23,2.34c-.72,2.31-1.5,4.8-.1,7,1.68,2.65,4.39,3.36,7.47,3.06,4.44-.42,8.95-1.23,13.3.42,3.31,1.25,6.92,2.28,8,6.43.08.32.44.59.72.84a13.75,13.75,0,0,1,2.85,4.37c1.87,3.76,3.17,7.74,4.66,11.65a36.61,36.61,0,0,1,2.43,16.2c-.31,4,2.71,8.21,6.46,9.82,1.84.79,3.69.46,5.53.67a18.32,18.32,0,0,0,9.94-1.65,75.36,75.36,0,0,0,11.53-6.69c3.41-2.42,6.19-5.38,7.09-9.55.66-3,1.46-6.23-.74-9.11a30,30,0,0,1-4.49-7c-1.26-3.21-3.93-6-3.17-9.83a55.88,55.88,0,0,1,2.06-8.7c1.59-4.38,5.2-7.45,7.63-11.32,2.66-4.25,5.44-8.32,7-13.18.57-1.83.9-3.73,1.62-5.55.8-2,2-3.86,2.67-5.9,1.9-5.53,2.11-11.35,2.71-17.1.47-4.5-1.09-8.77-2.8-12.71A25.09,25.09,0,0,0,389.57,378Z"/><path class="cls-1" d="M364.82,386.57a11,11,0,0,0-4.87-6.73c-2.39-1.51-3.57-4.22-5.95-5.77a33.37,33.37,0,0,0-4.62-2.42c-3.08-1.41-5.93-3.86-9.85-2.12-2,.89-2.75,1.8-1.21,3.36,1,1,.65,1.53,0,2.22-.47.48-1,.91-.51,1.61a1.08,1.08,0,0,0,1.5.38c.83-.4.9-.08,1,.67a7.18,7.18,0,0,1-.13,2.62c-.66,2.53-1.61,5-2.47,7.43-1.76,5-3.42,9.95-6.63,14.28-2.64,3.56-5.51,6.76-9.85,8.28a2.2,2.2,0,0,0-1.77,2.19c.11,1,1,1.36,2,1.46a8.44,8.44,0,0,0,2,.27c4.66-.69,8.79,1.42,12.89,2.88s8.14,2.44,12.51,1.78c7-1.06,13.1-3.46,16.32-10.52,1.74-3.79,2.07-7.75,2.18-11.79.08-3.46.63-7-2.32-9.74A.67.67,0,0,1,364.82,386.57Z"/><path class="cls-4" d="M404.17,382.37a11.55,11.55,0,0,0-1-2.4,56.84,56.84,0,0,0-6.91-8.44,33,33,0,0,0-8.94-6.22,47.46,47.46,0,0,0-11.07-3.65c-5.26-1-10.39-2.61-15.82-2.59-2.8,0-5.68.28-8.4-.23a33.12,33.12,0,0,0-16.73,1.52c-3,1-4,2.37-3.67,5.39a2,2,0,0,0,1.25,1.73c.45.2,1.27.31,1.39-.17.54-2.13,1.5-.7,2.44-.44s1.36.89,2.1,1.23A70.58,70.58,0,0,1,349.5,374a2.79,2.79,0,0,0,1.14.64c3,.19,5.27,1.94,7.48,3.58,3.47,2.56,6.2,6,9.42,8.84a7.78,7.78,0,0,1,2.66,4.58c.28,1.47-.9,2.12-1.12,3.29-.44,2.45-1.24,4.85-1.71,7.31-.44,2.27-2.13,4.33-1.6,6.7.35,1.6-.5,2.71-.77,4.05-.15.79-.8,1.29-1.07,2.1-.64,1.9-.47,3.89-1.08,5.76a4.1,4.1,0,0,0,1.39,4.9c1.1.71,4.28.44,5.35-.54,2.5-2.27,5.33-4.16,7.6-6.7a2.68,2.68,0,0,1,2.24-1.21c4,.32,7.42,5.24,6.38,9.24,0,.06-.05.12-.06.18-1.17,4.6-7.81,7.5-12.1,7.84-1.9.15-3,1-3.09,2.88a19.23,19.23,0,0,0,1.63,9.52c1.55,3.12,3.2,6.1,6,8.29,1.56,1.23,3.37,1.7,5.07.66A36.14,36.14,0,0,0,390,451c4.55-4.49,8.45-9.36,11-15.28a2.63,2.63,0,0,0,.14-1.48c-.4-3,.12-5.91-.1-8.91-.27-3.82,1.15-7.79,2.68-11.35,2.7-6.25,3.51-12.72,3.66-20.49C408.1,390,405.91,386.25,404.17,382.37Z"/><path class="cls-5" d="M385.73,401.16c-4.32-2.37-8.55-5.14-13.51-6.21a1.39,1.39,0,0,1-1.15-1.66,6.57,6.57,0,0,0-1-3.81,45.53,45.53,0,0,0-8.57-10.71,17.88,17.88,0,0,0-3.73-3.2,24.31,24.31,0,0,1-4.39-2.44c-3.8-3.1-8.22-5.08-12.44-7.47-5.38-3-11-3.58-16.81-2.69-6,.92-11.4,3.77-16.8,6.43a51,51,0,0,0-8.12,5.18c-2.09,1.56-4.61,2.58-6.51,4.47a37.27,37.27,0,0,1-3.1,3.29c-4.49,3.55-7.95,7.65-9.35,13.45a83,83,0,0,0-1.94,13.3,13.2,13.2,0,0,0,.62,3.94c.73,3.47,4.5,6.54,7.53,6.16a29.43,29.43,0,0,0,10.14-2.93c4.13-2.19,8.45-2.14,12.87-1.32a4.65,4.65,0,0,0,1.81.32c4-1,7.86.35,11.73.7,2.75.25,5.64,1.51,8.36,2.62a34.43,34.43,0,0,0,20.24,1.88,30.54,30.54,0,0,0,13.11-6.06,2.61,2.61,0,0,1,2.88-.43c2.73.86,5,2.46,7.51,3.82,4.73,2.6,9.23,5.57,14,8.17,3.16,1.74,5.79,4.19,8.8,6.13,2.11,1.36,4.21.53,5-1.91.18-.54.32-1.1.45-1.65a41.18,41.18,0,0,1,1.3-5.34c1.78-4.52,1.51-5.95-1.67-9.32A68,68,0,0,0,385.73,401.16Zm-18.89,1c-.93,4.57-2.34,9-7.34,11.29S349.55,418,343.85,418c-3.44,0-6.54-1.05-9.7-2-4.29-1.31-8.63-2.39-13-3.39-.38-.08-.82-.08-.89-.52s.42-.57.75-.7c1.58-.59,3.2-1.11,4.77-1.75a18.11,18.11,0,0,0,5.64-3.94c2.2-2.13,4.76-4,6.4-6.56A35.6,35.6,0,0,0,342.1,391a110.3,110.3,0,0,0,3.14-10.68,11.61,11.61,0,0,0-1.36-7.86c-.21-.38-.59-.68-.51-1.31,1.18-.31,1.61.74,2.37,1.09a65.09,65.09,0,0,1,11.93,7.58c1.57,1.18,2.61,3.06,4.17,4.26,3.33,2.58,4.6,6,5,10A27.53,27.53,0,0,1,366.84,402.17Z"/><path class="cls-6" d="M333.49,369.62c-1,.25-.7,1.07-.6,1.88.39,3.16,1.06,6.32.05,9.53-.72,2.3-1.75,4.46-2.66,6.68-2.67,6.45-6.8,11.35-13.62,13.78a67.08,67.08,0,0,0-7.8,3.84c-.65.33-1.21.79-.66,1.64.44.69.95.59,1.63.27,2.84-1.34,6-1.76,8.81-3.33,4-2.22,7.83-4.42,10.61-8.23a50.8,50.8,0,0,0,3-5.26,36.24,36.24,0,0,0,3.9-13c-.68-2.12-.19-4.41-1-6.52C334.86,370.22,334.37,369.4,333.49,369.62Z"/><path class="cls-6" d="M300.85,404.57c-.79,0-1.54.31-1.5,1.32s.25,1.66,1.36,1.68a1.58,1.58,0,0,0,1.7-1.44C302.31,405.17,301.84,404.55,300.85,404.57Z"/><path class="cls-6" d="M293.46,406.44a1.54,1.54,0,0,0-1.7,1.41,1.41,1.41,0,0,0,1.42,1.45c.82.08,1.59-.38,1.61-1.86C294.8,407,294.42,406.41,293.46,406.44Z"/><path class="cls-6" d="M286.12,409.61c-.66.11-1.24.48-1.13,1.19s.47,1.35,1.35,1.33,1-.65,1.14-1.28C287.66,409.82,286.75,409.88,286.12,409.61Z"/><path class="cls-7" d="M370.72,800c-19.59,0-39.18,0-58.77,0-1.75,0-2.12-.75-2.23-2.17-.33-4.05-1-8.1-.94-12.13.09-3.15-.54-6.23-.31-9.37a13.07,13.07,0,0,0-.44-4.62c-1-3.18-.5-6.4-.88-9.58-.48-4.17-.63-8.38-.9-12.57-.31-4.81,0-9.62-.09-14.43-.1-3.8,1.16-7.48.75-11.29a2.36,2.36,0,0,1,1.06-2.47c.54-.31,1.09,0,1.61.3.84.46.73,1.28.75,2,0,1,.52,1.07,1.19.64,4.15-2.69,9-3.56,13.61-4.92a88.32,88.32,0,0,1,9.81-2c6.58-1.12,13.25-1.78,19.72-3.34,6.73-1.63,13.52-2.86,20.3-4.14,3.69-.69,7.47-.93,11.22-1.25s7.46-.4,11.17-.78a24.26,24.26,0,0,1,14.38,2.8,93.39,93.39,0,0,1,10.81,6.67,20.8,20.8,0,0,1,6.75,9,24.31,24.31,0,0,1,2,7.44c.18,1.88,1.48,3.43,2.07,5.24,1.37,4.2,1.27,8.51,1.48,12.82.18,3.62-1.55,6.54-3,9.59a2,2,0,0,1-2.13,1.16c-2.54,0-2.74.08-1.95,2.51a44,44,0,0,1,1.53,7.5c.52,3.51.68,7.12,1.68,10.49s.42,7,1,10.41c.32,1.79-.13,3.7-.19,5.56,0,.78-.44,1-1.11.91-.45,0-.89,0-1.34,0Z"/><path class="cls-3" d="M141.31,581.08a16,16,0,0,1-5.09-2.85,65.86,65.86,0,0,1-7.78-8.35C124.24,564,118,561.1,111.9,558c-4-2-8.42-3.28-12.49-5.27-3.83-1.87-7.64-3.8-11.49-5.63s-8.08-2.76-11.94-4.62a1.78,1.78,0,0,0-2.56.73c-.65,1-.2,1.55.36,2.33,3.28,4.48,7.73,7.5,12.46,10.2.47.27,1.13.27,1.31.94-3.19.9-6.5.9-9.74,1.67-3.69.87-7.7.37-11.48,1.47-1.39.4-2.87.82-2.65,2.52.16,1.31,1.55,1.91,2.79,2,2.32.13,4.65,0,7,0,2.89.06,5.8-.24,8.76.44-1.33.52-2.42,1.51-3.71,1.88-3.66,1.06-6.78,3.11-10.07,4.89a1.79,1.79,0,0,0-1.06,2.14c.21,1,1,1.35,2,1.38,1.35,0,2.63-.57,3.9-.57,3.46,0,6.5-1.41,9.67-2.43.81-.35,1.73-.25,2.54-.6a3,3,0,0,0,1.28-.91,3.11,3.11,0,0,1-1.21.93c-.59.16-1.23.26-1.46,1-.94,1-2.38,1.2-3.49,1.92a3.32,3.32,0,0,0-1.83,2.48c0,1.09,1.09,1.51,1.91,1.9a3.38,3.38,0,0,0,2.4-.09c3.15-1,6.28-2,9.42-3,.52-.16,1.15-.46,1.55.13,1.2,1.75,3.14,2.73,4.44,4.37a5,5,0,0,1,1.16,1.14c2.23,2.51,4.13,5.31,7.14,7.11a18.92,18.92,0,0,0,10.78,2.5c2-.09,4.35-.7,6,.52,2.18,1.68,4.7,2.82,6.77,4.62.84.72,1.72.47,1.92-.5s.91-1.44,1.51-2.05c.79-.81,1.58-1.61,2.31-2.47,1.83-2.13,2.14-4.85,2.71-7.43.66,0,.83.44,1,.83.32.67.7,1.33,1.55,1a1.93,1.93,0,0,0,1.48-1.79A2.49,2.49,0,0,0,141.31,581.08Z"/><path class="cls-8" d="M464,590.13a45.77,45.77,0,0,1-2-8.6,75.51,75.51,0,0,0-3.6-15c-1.72-5.08-3.47-10.17-4.86-15.36-1.23-4.57-2.93-9-6.17-12.53-2.07-2.28-3-5.2-4.55-7.74s-2.41-5.72-4.34-8.28c-2.6-3.44-4.85-7.15-7.13-10.81a49.9,49.9,0,0,0-7.21-9c-2-2-4.33-3.69-6.13-5.82a32.5,32.5,0,0,0-7.82-6.62c-5.43-3.34-11-6.62-17.13-8.48-3.77-1.14-5.86-.63-6.69,3.89A26.32,26.32,0,0,1,381,498.28a12.66,12.66,0,0,1-1.41,1.91c-1.94,1.66-4.29,2.22-6.56,3.08-4.43,1.68-8.79,3.08-13.67,3.19-5.14.12-10.08-4.92-10.85-9.4-.37-2.11-.5-4.25-.75-6.38-.22-1.87-1.15-2.65-2.71-2.17-3.76,1.15-7.52,2.31-11.23,3.58-3.44,1.18-6.76,2.71-10.23,3.72-4.48,1.3-8.48,3.74-12.93,5.08-1.43.43-2.67,1.51-4.11,1.86-4.37,1.08-8.07,3.41-11.71,5.88-4.44,3-7.48,7.23-10.05,11.87-1.4,2.52-3.27,4.89-3.94,7.67A61.23,61.23,0,0,1,273,546.1a166.93,166.93,0,0,1-14.71,20.37,13.43,13.43,0,0,1-2.36,2.41c-2.65,1.88-5.45,3.55-8.09,5.41a42.85,42.85,0,0,1-13.24,6.07c-2.54.71-5.23.93-7.72,1.77-2,.65-3.78,1.68-5.89,1.86-5.41.46-10.7,1.82-16.16,2-3.93.11-7.89.85-11.8.09-5.33-1-10.78-1.07-16.13-2-2.81-.48-5.71-.41-8.54-.81-6-.84-11.62-3.25-17.57-4.33-3.21-.58-5.84-2.52-8.87-3.51s-4-.5-5,2.39c-.38,1.07-.77,2.13-1.22,3.17-2.06,4.75-4,9.52-6.28,14.19-.76,1.58-.83,3.47-2.15,4.78v.77a9.93,9.93,0,0,0,4.23,3.47A9.59,9.59,0,0,1,135,606a9.81,9.81,0,0,0,5,2.33,30.94,30.94,0,0,1,5.33,1.5c3.47,1.44,6.72,3.39,10.37,4.43,4.93,1.39,9.9,2.64,14.8,4.14s9.9,2.32,14.67,4.11a127.32,127.32,0,0,0,16.15,4.54,99.49,99.49,0,0,0,22.05,2.16c1.81,0,3.63-.42,5.44-.32,5.49.3,10.91-.43,16.35-.89,4.33-.36,8.59-1.33,12.92-1.79a49.7,49.7,0,0,0,13.64-3.73,73,73,0,0,0,13.91-7.32c3.64-2.52,7.28-5,11-7.55.45.22.3.75.38,1.15.81,4.2.78,8.53,1.87,12.68A66.54,66.54,0,0,1,300.65,633a120.88,120.88,0,0,1,.78,12.19,30.77,30.77,0,0,0,0,3.72c.5,4.81.23,9.65.64,14.45.34,3.95-.1,7.89,0,11.84a74.65,74.65,0,0,1,0,10.47,97.35,97.35,0,0,1-3,14.57,61.36,61.36,0,0,0-1.17,8.74c-.65,5.44-2.13,10.71-3.37,16-.32,1.38.21,2,1.47,2.33a73.52,73.52,0,0,0,21.26,2.47c6.84-.2,13.58.49,20.36,1,3.94.28,7.84.89,11.77,1.27,7.31.7,14.54-.89,21.83-.95,4.54,0,9.09,0,13.64-.14,3.73-.1,7.42-.38,11.13-.69A36.23,36.23,0,0,0,406.81,728a17.31,17.31,0,0,1,7.11-1.05,27.35,27.35,0,0,0,3.84-.16,70.08,70.08,0,0,1,.43-7.69c-.83.06-1-.27-.74-1.14.59-1.9,1.1-3.82,1.53-5.78.89-4,2.08-8,1.77-12.24a5.18,5.18,0,0,1,.09-1.89c1.19-3.92,1.33-8,1.63-12,.48-6.29.42-12.63.29-19-.1-4.84-.5-9.66-.94-14.47,1-6.66.88-13.41.89-20.12,0-3.78.51-7.52.45-11.28-.06-4.57-.29-9.14-.38-13.71,5.57-2.71,11.52-4.51,17.25-6.86a34.13,34.13,0,0,1,7.64-2.49,79.35,79.35,0,0,0,11.83-3.29c1.55-.5,2.39-.31,2.83,1.06,1-.4,2-.78,3-1.14C464.94,593.21,464.48,591.67,464,590.13Z"/><path class="cls-1" d="M516.89,392.45c-.56,0-1.13-.05-1.69-.1-1.81-.16-2.72-1.86-1.42-3s.72-2,.41-3c-.78-2.4-.41-3.51,1.78-4.65,2.55-1.32,4.9-3.06,7.84-3.55.56-.09,1.22-.49,1.63,0,1.87,2,4.3,1.26,6.42,1.08,2.86-.24,4.61,1.2,6.09,3.13.78,1,.24,2.19-1,2.8-2.53,1.28-5.15,2.4-7.61,3.81a16.47,16.47,0,0,1-8.39,2.46C519.59,391.41,518.41,392.7,516.89,392.45Z"/><path class="cls-9" d="M515.21,395.65a8.84,8.84,0,0,0-1.36-.37,1.61,1.61,0,0,1-1.49-1.87c.08-1,.8-1.42,1.83-1.57,2.86-.41,5.75-.62,8.47-1.78a83.28,83.28,0,0,0,9.43-4.53,63.69,63.69,0,0,1,10-4.78c1-.35,2-.56,2.54.45s-.16,1.78-1,2.39c-1.7,1.23-3.76,1.83-5.48,3-3.74,2.53-7.92,4.21-11.89,6.28A29.75,29.75,0,0,1,515.21,395.65Z"/><path class="cls-3" d="M518.75,415.28a4.18,4.18,0,0,1-2-3.84c.16-2.8-.39-3.32-3.16-3.2-.87,0-1.7.2-2.54.3-2.09.26-4,1.13-6.24,1-3.17-.12-6.31-.65-9.49-.72A6.62,6.62,0,0,1,490,405.3a59.86,59.86,0,0,0,11.13.87,26.13,26.13,0,0,0,12-2.19,2.77,2.77,0,0,0,1.29-4.23,11.67,11.67,0,0,0-1.43-2c-1.33-1.46-1.37-2.28,0-3.74.78-.83,1.64-1.59,2.44-2.42,2-2,1.91-3,.26-5.42-1.06-1.54-2.64-2.21-4.15-3a6.39,6.39,0,0,1-3.1-2.86A51.39,51.39,0,0,0,502,368.67a16.69,16.69,0,0,1-3.11-5.74,40.75,40.75,0,0,0-5.19-11.4c-2.81-4.42-4.87-9.75-10.87-11.13a1.4,1.4,0,0,1-.61-.43,8.45,8.45,0,0,0-6.07-2.21c-5-.08-9.88-1.08-14.94-.22-2.64.44-5.35.1-8.09,1-1.89.64-3.77,1.36-5.68,2-2.25.71-4.54,1.35-6.77,2.09-3.43,1.13-6.32,3.37-9.23,5.49-2,1.44-4,2.85-5.07,5.09-1.51,3.16-4.24,5.46-5.52,8.87s-2.88,6.79-3.4,10.53c-.33,2.38-.05,4.78-.45,7.17a12.56,12.56,0,0,0-.6,3.06,82.48,82.48,0,0,1,.5,8.75,16.92,16.92,0,0,0,2.33,8.09c1.59,3.07,2.29,6.55,4.27,9.5,1.23,1.84,2.95,3.25,4.16,5.07a34.82,34.82,0,0,0,7.6,8.18,16.38,16.38,0,0,1,5.22,7.37c1.27,3.33,2.49,6.69,3.7,10.05A32.37,32.37,0,0,1,446.24,450c.07,3.54-.26,7.09-.2,10.64,0,1.6.19,3.38,2.1,3.42,2.08.05,2.09-1.76,2-3.37,0-.52-.24-1.15.73-1.2,4.31-.22,8.62-.63,12.89.38,5.32,1.26,10.83,1.21,16.19,2.25,2.77.54,2.92.33,3,3.24a1.54,1.54,0,0,0,1.49,1.61c.79,0,1.92-.24,1.87-1.42a28,28,0,0,1,.55-7.43c.48-2.18.78-4.41,1.38-6.56a44.2,44.2,0,0,1,4.71-10,20.2,20.2,0,0,1,10.76-9.1,50.64,50.64,0,0,0,8.15-3.44c1.76-1,3.54-2.07,5.37-3C521.18,424.09,523.88,418.43,518.75,415.28Z"/><path class="cls-1" d="M509.53,379.35a47.61,47.61,0,0,1-6-3.61,34.21,34.21,0,0,0-6.27-4.21c-2.18-1.08-4.18-2.18-5.6-4.25a52.69,52.69,0,0,0-2.95-4.4c-4.33-5-6.78-10.91-8.52-17.18h0c1.68-1.25,1.7-2.23.06-3.38h-.38l-1.54,1.16h0c-.95.85-1.95,1.64-2.83,2.55a77.61,77.61,0,0,1-10,9.07c-3.12,2.3-5,5.76-7,9.1-2.63,4.48-2.64,9.06-1.16,13.88.53,1.73,1.42,3.27,2,5a16.62,16.62,0,0,0,7.16,9c2.51,1.62,5.12,1.64,7.86,1.93,4.7.49,9.33.93,13.93-.59a34.72,34.72,0,0,0,10-4.72c2.32-1.71,4.75-3.46,7.81-3.54a6.26,6.26,0,0,0,3.76-1.62C511.74,382.07,511.6,380.59,509.53,379.35Z"/><path class="cls-8" d="M492,326.2c-1-1-2.59-.95-3.36-2.2h-1.91c-1.2.77-2.57.11-3.82.45a3.19,3.19,0,0,0-2,.24h0a5.66,5.66,0,0,0-2.22.43c-2.41,1-4.82,2.08-7.27,3a42.28,42.28,0,0,1-9.49,2.1c-3.88.5-7.48,2-11.2,3.07-2.62.76-5.38,1.26-7.8,2.61-3.38,1.88-6.91,3.47-10.19,5.6a71.54,71.54,0,0,0-8.11,6c-1.65,1.43-3,3.25-4.64,4.66-3,2.51-5,5.75-7.18,8.85a15,15,0,0,0-2.36,7.43c-.24,2.21-.67,4.42-.16,6.75.26,1.21,1.13,2.43.63,3.81a2.93,2.93,0,0,0,.68,3c.41,1-.09,2.11.31,3.12-.15.82.47,1.46.5,2.24.29.77-.08,1.6.25,2.36a64.63,64.63,0,0,0,4.57,9.62,40.88,40.88,0,0,1,2.22,5.34c1.15,2.87,3,5.4,4.13,8.29.76,1.89,1.55,3.88,3.31,5.14a22.67,22.67,0,0,1,4.54,4.48c1.79,2.27,2.89,5,4.83,7.16-.13.67.49.85.81,1.23h0a18.32,18.32,0,0,0,4.73,7.11,2.54,2.54,0,0,0,2.31.85c3.38-.31,8.91-5.64,9.47-9.29a8,8,0,0,1,.59-1.73c.78-2,2.78-3.22,3.22-5.32a19,19,0,0,0-1.59-12.35,1.4,1.4,0,0,0-1.46-.89,11.42,11.42,0,0,1-10.9-8.91c-.56-2.54.49-5.82,2.33-6.46a10.21,10.21,0,0,1,7.71.38c2.43,1.08,4,3.4,6.46,4.44a5,5,0,0,0,4.7-.3,3.22,3.22,0,0,0,1.52-3.47c-.65-2.46-1.55-4.86-3.78-6.46-.61-.43-1.47-.94-1.46-1.67,0-2.86-1.59-5.25-2.18-7.95-.79-3.63-2.35-7.09-1.68-10.94.45-.63.11-1.39.33-2.06h0a6.05,6.05,0,0,1,.67-2.34,14.16,14.16,0,0,1,3-3.86c3.19-3.52,6.32-7.13,10.49-9.58a16.17,16.17,0,0,0,2.82-1.42,95.33,95.33,0,0,1,8.24-6.06c.58-.42,1.08-.83.68-1.59-.26-.47.13-.45.31-.65,1.95-2.1,4.59-2.56,7.21-3.11.76-.16,1.31-.35,1.31.8a1.66,1.66,0,0,0,1.61,1.76,2.32,2.32,0,0,0,2.17-2C496.85,333.28,495.29,329.52,492,326.2Z"/><path class="cls-10" d="M545.46,362.38c-1.75-4-3.53-7.84-7.22-10.61-1.86-1.4-4-2.44-5.65-3.92-4.38-3.9-9.91-5.42-15-7.86-3.76-1.81-7.93-2.58-12-3.68-6.24-1.69-12.39-2.06-18.58-.2-5.36,1.62-9.32,5.53-13.67,8.77-2,1.51-3.4,3.85-5.41,5.28-5.35,3.79-8.74,9.07-11.63,14.68-.94,1.82-1.41,3.06-3.76,3.66-5.46,1.39-10.19,4.57-15,7.45-2.28,1.37-4.31,3.26-6.53,4.67A65.56,65.56,0,0,0,415,394.94a2.47,2.47,0,0,0-.76,1.69,18.79,18.79,0,0,0,1,5.91c1.23,3.14,3.55,5.53,5.36,8.26,2,3,3.68,3.15,6,.53a51.93,51.93,0,0,1,8.42-7.87c3.75-2.65,7.23-5.67,11-8.22s7.45-5.37,11.77-7.07c.89-.35,1.6-.77,2.29.51,1.89,3.54,5.55,4.94,9,5.7,4,.88,7.9,2,12.27,1.57a40,40,0,0,0,16-4.95,63.68,63.68,0,0,1,14.66-6.06c2.17-.58,4.56-.19,6.46-1.35,1.64-1,3.32-1,5-1.21a8.79,8.79,0,0,0,1.86-.27,8.11,8.11,0,0,1,5.12.25A34,34,0,0,0,540.92,384c1.15.34,2.8-.4,4.4-1.51,3.53-2.42,3.64-6,3.06-9.61A43,43,0,0,0,545.46,362.38Zm-39,21c-5.08,2.49-10.41,4.46-15.34,7.29-3,1.7-6.42,2-9.83,2.11-5.55.12-10.66-1.63-15.68-3.78-2.3-1-2.79-3.3-4-5.07-2.5-3.63-2.41-7.91-3-12-.33-2.38.43-4.44,1-6.6a5.86,5.86,0,0,1,1.45-2.12,43.43,43.43,0,0,0,2.83-4.2c1.29-2,3.21-3.49,4.76-5.3,2.49-2.92,6-4.7,8.65-7.47.11-.12.35-.11.83-.24a21.61,21.61,0,0,0-1,6.35c0,2.63,1.18,4.84,2.22,7,2.16,4.49,4.48,9,7.94,12.63a18.77,18.77,0,0,0,5,4.13c1.77.91,3.35,2.18,5,3.27,2.77,1.8,6,2.11,9.12,2.72.46.09,1.2-.05,1.22.58S506.9,383.13,506.47,383.34Z"/><path class="cls-6" d="M505.31,371.4a79.77,79.77,0,0,1-7.89-6.06c-3.6-3-7-6.25-8.37-10.91-1-3.56-2.42-7.2-.59-11,.34-.68.72-1.33,1-2s.59-1.39-.12-1.91-1.43.06-2,.53a3.57,3.57,0,0,0-.87,1c-2.83,4.91-2.13,10-.35,14.93,2.6,7.18,8.58,11.58,14.36,16a5.77,5.77,0,0,0,3.82,1.21c.54-.05,1.38.26,1.7-.61C506.25,372.05,505.71,371.66,505.31,371.4Z"/><path class="cls-6" d="M526.11,372.07c-.86.3-1.62.77-1.56,1.8a2,2,0,0,0,2.06,2.05c1.08.08,1.5-.69,1.49-1.56C528.1,373.14,527.26,372.48,526.11,372.07Z"/><path class="cls-6" d="M516.33,371.9c-1-.09-1.35.69-1.34,1.63s.32,1.91,1.51,2c1,0,1.47-.59,1.54-1.54A1.76,1.76,0,0,0,516.33,371.9Z"/><path class="cls-6" d="M534.62,373.62c-.72.35-1.6.6-1.67,1.69s.68,1.27,1.46,1.36,1.64-.1,1.7-1A1.87,1.87,0,0,0,534.62,373.62Z"/><path class="cls-3" d="M687,412.24c2.43-.51,4.55-1.55,6.9-.81a3.5,3.5,0,0,1,2.4,4.23c-.1.36-.24.7-.36,1.06-.49,1.47-.85,2.54,1.29,3.42a4.54,4.54,0,0,1,2.52,4.66c-.07.59-.12.9.62,1.26,2.43,1.19,3,3.08,2.64,5.88-.85,5.8-3.58,10.85-6.26,15.88a17.71,17.71,0,0,1-6.53,6.53c-1.43.88-2.2,2.48-3.44,3.63a47.4,47.4,0,0,1-11.07,7.82,70.16,70.16,0,0,0-6.71,4.32c-.63.42-1.26.84-1.92,1.21A1.86,1.86,0,0,1,665,471c-.58-.42-.53-1-.22-1.7a9,9,0,0,0,1.05-2.79,5.69,5.69,0,0,0-1.63-4.62c-2.28-2.56-5-4.74-6.78-7.74-.48-.82-.8-1.32-1.85-.92a1.17,1.17,0,0,1-1.6-.57c-.44-.86,0-1.29.61-1.74,2.86-2.2,4.82-5.31,7.66-7.55a3.69,3.69,0,0,0,1.26-2.87,88.46,88.46,0,0,0-.39-9.2,40.48,40.48,0,0,1,.17-9.59,7.11,7.11,0,0,1,1.44-2.59,31.11,31.11,0,0,0,3.62-6.84,9.13,9.13,0,0,1,2.25-3c.86-.91,2.53.18,2.76,1.71a11,11,0,0,1-1.24,6.21,8.86,8.86,0,0,0-1.22,3.52c0,.53.07,1.15.58,1.31.92.3.53-.64.71-1,1.6-3.05,3.3-6,5.19-8.92a81.61,81.61,0,0,0,4.08-7.82,22.1,22.1,0,0,1,8.23-8.44c1.29-.83,2.6-1.7,4-2.45a2.5,2.5,0,0,1,3.27.5c1,1,.55,1.86-.17,2.85-1.47,2-3.25,3.71-4.71,5.72A48.17,48.17,0,0,0,687,412.24Z"/><path class="cls-11" d="M552.8,800H551q-59.32,0-118.66,0c-1.7,0-2.27-.56-2.48-2.08-.77-5.79-2.4-11.39-3.64-17.08a87.4,87.4,0,0,1-1.82-10.51,30.27,30.27,0,0,0-1.71-8.59c-1.93-4.88-2.14-10.15-3-15.26-1.1-6.31-2.27-12.61-3.41-18.91a4,4,0,0,1-.12-1.33c1-6-.39-12,.38-18,.63-4.94.48-10,1.67-14.85.58-2.38,1.61-4.66,1.65-7.18a3.4,3.4,0,0,1,2.67-3.31c3.5-1.14,6.75-2.88,10.27-4,10-3.13,20.09-5.77,30.81-4.4,2.88.37,5.91-.41,8.87-.71a17.68,17.68,0,0,1,9,1.06c3.81,1.63,7.91,1.72,11.94,2.1,6.19.59,12.44.79,18.59,1.66,6.32.89,12.62,2.17,18.83,3.69,2.84.7,5.43,2.42,8.17,3.61,1.56.68,3,1.67,4.77-.05,1-1,2.49,0,3,1.74,1.14,4.18,1,8.41.59,12.64a58.69,58.69,0,0,0,.61,12.14,112.74,112.74,0,0,1,1,13,18.54,18.54,0,0,0,1,4.42c2.23,8.73,2.41,17.66,2.89,26.59.38,6.83-.29,13.58-.47,20.36-.15,5.53.42,11,.62,16.48C553,795.42,553.36,797.58,552.8,800Z"/><path class="cls-4" d="M672.19,467.83a17.76,17.76,0,0,1-2.7-4.34c-.54-1.27-.87-2.72-1.89-3.69-3.2-3-4.89-7.14-7.8-10.35-1.34-1.48-2.5-3.16-4.38-4.09-3.13-1.54-7,.38-9.24,3a51.82,51.82,0,0,1-7.94,7.16c-4.78,3.7-10.32,6.15-15.47,9.27-4.94,3-10.5,4.67-15.75,7-2.49,1.11-5.32,1.06-7.7,2.29-6,3.11-12.65,4.13-19.08,5.81a80,80,0,0,1-11.31,2.28,70.38,70.38,0,0,1-8.79.9c-5.86-.08-11.72-.13-17.56-.77a99.07,99.07,0,0,1-11.22-1.5c-3.87-.87-7.55-2.38-11.44-3.17a25.17,25.17,0,0,1-6.47-2.05,49.61,49.61,0,0,0-8.17-3.24,32.56,32.56,0,0,0-11.14-6.93c-4.09-1.39-8.41-2.39-12.21-4.4-5.28-2.79-11-3.74-16.68-4.94a35.22,35.22,0,0,0-8.33-.55c-3.6.11-7.19,0-10.69,1-3.06.88-6.36,1.36-9.1,2.85a53.81,53.81,0,0,0-9.46,5.84c-4.14,3.52-8.05,7.33-10.77,12-3.93,6.78-8.55,13.39-9.12,21.59-.26,3.63-.14,7.27-.18,10.91,0,.87.12,1.78-.62,2.47v.38a2.48,2.48,0,0,1,.17.37c.64,1.47.42,3.07.53,4.61a9.84,9.84,0,0,0,.1,2.23c1,3.12.29,6.37.9,9.54a136.8,136.8,0,0,0,4.76,19.62,80,80,0,0,1,3.6,13.63c.95,5.73,1.78,11.47,2.35,17.26.32,3.32,1.46,6.54,1.42,9.92-.1,7.49,1.52,14.89,1.26,22.39-.1,2.85-.74,5.69-.77,8.54-.07,5-.93,10-.75,15a29.49,29.49,0,0,1-.63,4.81c-.27,2-.68,4.06-.2,6a8.41,8.41,0,0,1-.41,3.89c-.92,4.22-.81,8.48-1.05,12.74-.21,3.74.28,7.47,0,11.12-.23,3.09-.27,6.39-1.66,9.35-.37.78.07,1.3.63,1.81a21.82,21.82,0,0,0,9.1,4.83c2.07.57,3.52,2.12,5.53,2.69,3.2.92,6.16,2.67,9.46,3.16a59.68,59.68,0,0,0,9.34.9c3.29,0,6.47.85,9.71,1.22A226.52,226.52,0,0,0,485,700c5.51,0,11-.43,16.56.11a16.76,16.76,0,0,0,5.57-.6,46.89,46.89,0,0,1,9.84-1.34c1.85-.07,3.54-.79,5.38-.87,3.42-.15,6.92.27,10.2-1.07,4.37-1.79,9-2.17,13.62-2.91,1.55-.24,2.87-1.48,4.62-1.4.57,0,.53-.74.67-1.22a15.5,15.5,0,0,0,.42-5.6c-.29-4,.17-8-.27-11.93-.23-2.09.21-4.26.24-6.39.09-5.36-.18-10.72-.27-16.06-.13-8.57-3-16.63-3.56-25.09-.19-3-1.08-5.92-1.62-8.88a147.67,147.67,0,0,1-2.31-20.2,151.92,151.92,0,0,0-2.07-19,86.7,86.7,0,0,1-1.06-13.88,83.92,83.92,0,0,0-1.81-16.48c-.11-.52-.2-1-.29-1.58,2.67.2,5.32.17,8,.2,4.54.07,9,.69,13.64-.29,5.23-1.11,10.51-2,15.6-3.64,4.05-1.27,8.22-2.16,12.14-3.86,2.67-1.16,5.32-2.37,8-3.43,2.9-1.14,5.3-3.12,8.07-4.5,3.44-1.71,7.11-3.08,10.15-5.59a51.38,51.38,0,0,1,5-3.78c3.1-2,6.13-4.07,9-6.32s5.79-5,8.74-7.37c4.05-3.26,7.56-7.1,11.8-10.19a40.52,40.52,0,0,0,10.22-10.18c1.21-1.84,3.24-2.66,4.82-4.05,2.67-2.36,4.38-5.57,7.56-7.53C674.3,473.39,674.25,470.35,672.19,467.83Z"/><path class="cls-12" d="M209.31,546.28c3,.17,6,.67,9.06,1a3.68,3.68,0,0,0,4.27-3.45c.11-3.56.15-7.12.05-10.68-.18-6.66-.18-13.32-.17-20,0-5.68-.29-11.37-.14-17,.12-4.37-.12-8.73.05-13.11.14-3.77-.06-7.63-.22-11.44-.22-5.35-.05-10.72-.12-16.07s-.13-10.85-.17-16.27c-.07-7.28-.11-14.57-.26-21.85-.06-2.82-.13-5.64,0-8.47.06-2.41-.4-4.94,0-7.29.48-2.86-.34-5.59-.06-8.43.36-3.46-.11-7-.15-10.5,0-3.89.15-7.79,0-11.67-.19-4.22-.17-8.42-.17-12.63,0-4.39-.13-8.78-.17-13.17,0-1.29-.75-2.51-1.82-2.07-1.59.65-2.89-.16-4.31-.08a55,55,0,0,1-9.94-.54,80.19,80.19,0,0,0-10-.66,153.26,153.26,0,0,1-17.4-1.14c-4.34-.46-8.7-.59-13-1-4.81-.41-9.66-.51-14.49-.7-2.36-.09-4.64-.93-7-.51a20,20,0,0,1-6.55-.3c-4-.62-8-.41-12-.91a65.53,65.53,0,0,0-11.9-.54c-3.17.17-6.33-.67-9.49-.93-6.59-.53-13.21-.57-19.82-.95-3-.17-6-.66-9-1A3.68,3.68,0,0,0,70,337.4c-.11,3.49-.09,7,0,10.49.08,6.22.3,12.44.26,18.67,0,3.45.08,6.89,0,10.34,0,4.23-.07,8.45,0,12.69.1,4.8,0,9.61,0,14.42,0,4,.1,7.92.2,11.88.06,2.86-.21,5.74-.05,8.56.22,3.67.25,7.34.37,11,.19,5.55.09,11.12.09,16.68,0,8.65,0,17.3,0,27.18-.72,2,.46,5.25.17,8.52-.32,3.72.14,7.5.18,11.25s-.14,7.41,0,11.1c.2,4.22.17,8.42.17,12.64,0,4.39.13,8.78.18,13.17,0,1.28.74,2.51,1.81,2.07,1.59-.66,2.89.15,4.31.07a56,56,0,0,1,9.94.54,76.56,76.56,0,0,0,10,.66,152.94,152.94,0,0,1,17.39,1.15c4.35.46,8.7.58,13,1,4.81.41,9.66.5,14.49.69,2.35.09,4.64.93,7,.52a20,20,0,0,1,6.55.29c4,.63,8,.41,12,.91a66.44,66.44,0,0,0,11.9.55c3.17-.17,6.33.67,9.49.92C196.09,545.86,202.71,545.91,209.31,546.28Zm-29.24-5.1c-3.7-.14-7.36-.67-11.07-.78-4.79-.15-9.59-.45-14.34-1-7.13-.89-14.31-1-21.46-1.41-5.53-.32-11-.86-16.6-1.07-2.62-.1-5.3.35-7.81-.1a70.65,70.65,0,0,0-8.54-.81c-3.8-.23-7.56-1.07-11.39-.83-4.09.26-8.13-.65-12.22-.52-1.11,0-1.67-.63-1.63-1.79q.21-7.46.37-14.9c0-1.65-.32-3.27-.26-4.95.06-1.45-.11-3,0-4.42.36-3.25-.38-6.46-.23-9.7.31-6.48-.66-13,0-19.44.19-1.75-.51-3.34-.38-5.08.57-7.67-.14-15.34,0-23,.09-5.42-.42-10.86-.43-16.29,0-3.32.15-6.65,0-10-.09-2.9.14-5.8.08-8.72s-.08-5.85-.16-8.76c-.12-3.91.12-7.8-.17-11.72-.38-5.19-.09-10.41-.18-15.62-.06-3.37.17-6.73.09-10.1-.08-3.81-.25-7.62-.11-11.45.12-3.49-.21-7-.33-10.51-.11-3.13.22-6.26-.15-9.38-.1-.76.37-.81.94-.81.93,0,1.86,0,2.8,0,6.2.06,12.41.47,18.58,1s12.47.54,18.67,1.09c4.58.4,9.18.33,13.7.85,4.13.48,8.3.53,12.43,1.16a75.11,75.11,0,0,0,11.73.68c3.05,0,6.09.39,9.13.6,6.1.42,12.2,1.2,18.29,1.12a147.33,147.33,0,0,1,14.91.92c7.12.62,14.25.59,21.35,1.16,1.3.1,1.88.69,1.84,2-.15,5-.31,9.93-.38,14.9,0,1.58.24,3.15.26,4.75a45.37,45.37,0,0,1-.1,4.81c-.28,3.06.52,6.08.23,9.13a21.88,21.88,0,0,0,.23,6.31c.13.64-.32.67-.72.87-1,.48-.55,1.59-1,2.33-.71,1.22.27,1.55,1.07,1.84,1,.37.72,1.25.72,1.86,0,2.2-.17,4.4-.28,6.61a3.07,3.07,0,0,0-.05,1.12c.73,2,.49,3.28-2,3.32-.59,0-1.2.47-.76,1.16.54.88-.66,2.75,1.12,2.7s2.16,1.23,2,2.22c-.54,3.26.32,6.45.14,9.67-.41,7.52.43,15,.26,22.53-.13,6,0,12-.13,18-.07,2.94,0,6,.16,8.95.22,3.53.15,7.07.2,10.61,0,3,0,6.1.08,9.15.06,4.7.23,9.4.17,14.1-.06,4.35.14,8.69.13,13s.25,8.55.26,12.83c0,3.57,0,7.14.13,10.71,0,1-.16,1.1-1.11,1.15-4.17.22-8.3-.31-12.45-.49-5.62-.24-11.22-.87-16.84-1.24C186,541.27,183,541.29,180.07,541.18Z"/><path class="cls-12" d="M101.73,557.73c-8.73-.73-17.49-.82-26.23-1.26-5.9-.3-11.82-.89-17.75-.72-1.76.06-2.56-.69-2.45-2.48.32-5.13-.35-10.25-.29-15.38,0-2.39.32-4.78.22-7.14-.19-4.23-.79-8.45-.92-12.7,0-1.83.07-3.67,0-5.5-.05-.94,0-2.2-1.51-2.17s-1.57,1.2-1.63,2.18.27,2.12.27,3.19c0,6-.08,11.93.32,17.91.51,7.51.59,15.05.77,22.58,0,1.7.63,2.41,2.36,2.36a168.8,168.8,0,0,1,17.27.7,60,60,0,0,0,6.21.57c4.86-.16,9.66.72,14.5.59,3-.08,5.87.79,8.85.37,1.11-.15,2.39-.06,2.42-1.48S102.78,557.82,101.73,557.73Z"/><path class="cls-12" d="M191.31,318.07c2.77.19,5.52.54,8.31.51,3.34,0,6.68.16,10,.32,2.84.14,5.68.64,8.5.52,6-.24,12,.81,18,.72,1.2,0,1.94.47,1.89,1.81s.05,2.4,0,3.6c-.19,4.45.57,8.86.38,13.31-.09,2.13-.38,4.28-.26,6.4.19,3.34.64,6.67.69,9.58,0,1,0,1.59,0,2.16.07,2.15.1,4.31.26,6.46.07.9.12,2.05,1.5,2s1.39-1.11,1.62-2a2.42,2.42,0,0,0,0-.76c-.77-6.83,0-13.7-.59-20.56-.62-7.52-.61-15.09-.8-22.64-.05-1.65-.7-2.25-2.31-2.22a144.76,144.76,0,0,1-17.42-.73,46.73,46.73,0,0,0-6.22-.52c-4.8.17-9.54-.71-14.33-.6-3,.08-6-.84-9-.35-1,.17-2.2.13-2.27,1.46S190.43,318,191.31,318.07Z"/><path class="cls-12" d="M52,312c4.62.55,9.26.43,13.89.59,5.85.2,11.71.41,17.56.69,2.15.1,4.3,0,6.45.16a20.61,20.61,0,0,0,6.27-.15c.65-.15,1.33-.34,1.32-1.12a1.38,1.38,0,0,0-1.22-1.29,19.87,19.87,0,0,0-2.93-.55c-4.59-.38-9.2-.34-13.79-.42-6.08-.1-12.16-.55-18.25-.37a83.33,83.33,0,0,1-12.13-.33,1.74,1.74,0,0,0-2.18,2c.11,5.23.77,10.42.29,15.69-.43,4.69-.09,9.45-.09,14.17.09,4.19-.16,8.38.14,12.58.08,1.2.31,2,1.63,2s1.35-1.13,1.33-2.07c0-2.21-.27-4.43-.21-6.64.15-5.11-.15-10.23.15-15.34a12.9,12.9,0,0,0-.19-3.94c-1.26-4.77.45-9.45.14-14.16C50.12,312.2,50.92,311.91,52,312Z"/><path class="cls-12" d="M241.36,567.86c-.13-4-.67-8.06-.5-12.12.1-2.62.24-5.24.29-7.87,0-3.23,0-6.46,0-9.69H241c0-4.19,0-8.38,0-12.57,0-1.24-.36-2.05-1.65-2s-1.32,1.17-1.3,2.12c.05,2.21.28,4.43.21,6.64-.17,5.11.17,10.22-.14,15.34a12.92,12.92,0,0,0,.18,3.94c1.26,4.76-.43,9.44-.15,14.16.07,1.13-.58,1.49-1.66,1.44-4.81-.26-9.63-.54-14.45-.7-3.46-.11-7,.35-10.39-.11-5.88-.77-11.77-.28-17.63-.72a4.26,4.26,0,0,0-1.33.11c-.76.19-1.89.14-1.81,1.26s1,1.25,2,1.43c3.3.62,6.64.26,9.94.49,6.51.44,13,.3,19.53.63,5.56.28,11.14-.2,16.71.38C240.59,570.21,241.42,569.55,241.36,567.86Z"/><path class="cls-12" d="M251.19,397.53a4.48,4.48,0,0,0-.64,0c-.69-.36-1.05-.17-1.27.44a14.15,14.15,0,0,0-1,6.43c.11.93.35,1.71,1.55.88a30.81,30.81,0,0,0,3.85-3.9C254.55,398.06,254.55,398.05,251.19,397.53Z"/><path class="cls-12" d="M245.3,396.15c-1.21-.38-2.43-.71-3.64-1.08-.27-.08-.59-.09-.66.15a8.76,8.76,0,0,0-.71,3.09c.09.86,1.22.93,2.06,1a2.24,2.24,0,0,1,.57.08c2.35.54,3.08,0,3.12-2.34C246.24,396.32,245.68,396.27,245.3,396.15Z"/><path class="cls-12" d="M243.56,402.33c-1.42.13-3.08-.18-4.3,1.07.64,1.26-.37,3.42,1.81,3.08,1.31-.21,3.4.46,3.86-1.43C245.08,404.43,245.82,402.12,243.56,402.33Z"/><path class="cls-12" d="M229.4,393c-.52-1.6-2.62-1.35-3.92-1.6s-1.36,1.87-1.25,2.79c.25,1.9,2.19,1.25,3.43,1.8C229.65,395.77,229.64,393.73,229.4,393Z"/><path class="cls-12" d="M225,409.07a4.22,4.22,0,0,0,2.05-.25c.42-.18,1.22-.35,1.22-.51a9.33,9.33,0,0,0-.4-3.18c-.3-.74-1.22-.05-1.87-.11a7.68,7.68,0,0,0-1.3.22c-.78.09-2-.25-1.54,1.22C223.46,407.47,222.54,409.5,225,409.07Z"/><path class="cls-12" d="M234.12,403.68c-1.05.31-2.79-.28-2.77,1.61,0,1-.46,2.95,1.62,2.52,1.22-.25,3.3.46,3.36-1.95C236.37,404.38,236,403.3,234.12,403.68Z"/><path class="cls-12" d="M237.39,395.33c0-1.84-1.86-1.67-3.13-1.89-2.18-.38-2,1.63-2,2.61.14,1.86,2.06,1.16,3,1.57C237.39,397.93,237.41,396.19,237.39,395.33Z"/><path class="cls-12" d="M258.28,399.67a1.82,1.82,0,0,0-1.7,2.22c.07,1.93.19,2.17,1,2.16,1.35,0,3.11-1.48,3.07-2.61C260.62,399.89,259.4,399.52,258.28,399.67Z"/><path class="cls-12" d="M754.61,483.88c-1.34-.74-3-1-3.67-2.7-.29-.7-1.16-.86-1.9-1.11-1.25-.42-2.71,0-3.81-.83a107.27,107.27,0,0,0-10.62-6.91c-.36-.2-.76-.43-.84-.82,3.49-1.07,7.17-.86,10.65-1.81a30.4,30.4,0,0,1,8.22-.8c2,0,3.31-.66,3.06-2.52-.33-2.41-.06-4.78-.16-7.16-.21-4.9-.42-9.8-.4-14.7,0-3.78.67-7.6-.07-11.33s-.13-7.65-.18-11.44c0-3.15,0-6.38.09-9.56.11-5.31-.18-10.62,0-15.95.16-5.13.62-10.29.17-15.44-.42-4.88.14-9.78-.28-14.67-.2-2.28.19-4.6.11-6.9-.16-4.11-.28-8.21-.32-12.32,0-3.33.59-6.62.14-10a36.55,36.55,0,0,1-.56-5.21c0-4.18.12-8.35.33-12.52a112.57,112.57,0,0,0-.11-13.63c-.34-4.46.07-8.87,0-13.29-.07-4.2.34-8.43,0-12.66-.13-1.6-.08-3.22-.08-4.84,0-2.4.37-4.78.08-7.22-.15-1.27-.54-2.8.3-4s.35-2.07-.38-2.95a2.1,2.1,0,0,0-3.12-.46c-1.46,1.05-3.2,1-4.83,1.21-2.47.33-5,.42-7.47.62-2.19.18-4.3.91-6.43,1.16-2.6.3-5.28.36-7.83.83a209,209,0,0,1-21.72,3.07c-2.62.2-5.24.81-7.82,1-3.83.3-7.61,1-11.44,1.28-4.75.36-9.38,1.64-14.13,2.07-3.89.36-7.78.7-11.62,1.35-5,.86-10.08,1.3-15.12,1.93-5.93.73-11.91,1.2-17.76,2.43a58.47,58.47,0,0,1-7.86.93c-3.42.24-3.89.6-3.47,3.95a17.88,17.88,0,0,1,.1,2.64c-.07,4.22.16,8.43.24,12.64.06,3,.08,6-.1,8.94a38.35,38.35,0,0,0,.64,10.63c.12.54.21,1-.17,1.32s-.77-.25-1.13-.43a7.84,7.84,0,0,0-2.18-1.1c-.32-.05-.49-.17-.79.13-1.47,1.46-1.24,3.12.64,3.83s4,1.36,3.63,4.17a14,14,0,0,0-.27,2.22c0,5.49-.06,11,.14,16.46.17,4.71,0,9.41-.29,14.08-.29,5,.29,9.95,0,14.93-.19,4,.33,8,.2,12.07a39.93,39.93,0,0,0,0,6.47c.37,2.93,0,5.84.25,9.11a19,19,0,0,0-2-1.56,105.28,105.28,0,0,1-11-6.5c-2-1.42-4.5-2.08-6.41-3.55-4.18-3.22-9-5.38-13.39-8.17-5.08-3.2-10.23-6.29-15.36-9.4-2.49-1.51-3.89-2-4.51.56-.44,1.8-.9,3.74-.08,5.68.58,1.39.91,2.87,1.38,4.31,1,3,.9,6.26,2.06,9.22a32.4,32.4,0,0,1,1.69,5.58c.76,4,1.77,7.86,2.87,11.71s1.6,7.94,3,11.75c.87,2.28,1.2,4.72,1.93,7.06.82,2.62,1.35,5.34,1.91,8,.95,4.53,1.54,9.13,3,13.55,1.08,3.26,2.53,6.46,2.89,9.87.44,4.2,2,8.07,3,12.09.7,2.71,1.72,5.33,2.19,8.12.52,3.09,1.28,6.14,2,9.18.85,3.52,2.49,6.84,2.9,10.46.48,4.27,2.18,8.23,2.9,12.44s2.24,8.11,3.08,12.2,1.86,7.86,2.89,11.73c.81,3.06,1.66,6.12,2.22,9.25a2.5,2.5,0,0,0,1.56,2.18c3.19,1.2,6.32,2.61,9.59,3.53,5.4,1.53,10.57,3.72,15.86,5.55,5.63,1.94,11.35,3.72,16.84,6.07,5.67,2.43,11.7,3.81,17.36,6.28,3.52,1.54,7.31,2.44,10.73,4.27a1.27,1.27,0,0,0,1.59-.14c2.45-2.49,5-4.94,7.34-7.48,3.67-3.91,7.18-8,10.93-11.8,3.43-3.52,6.21-7.59,9.81-11,2.26-2.13,4.22-4.58,6.34-6.86,2.72-2.94,5.43-5.89,8.2-8.78s5.68-5.71,8.5-8.58a96.62,96.62,0,0,0,7.75-8.68,48.15,48.15,0,0,1,4.83-5.17c2.39-2.3,4.33-5,6.78-7.29,2-1.83,3.57-4,5.87-5.51a19.71,19.71,0,0,0,2.26-1.71C757.7,487.26,757.08,485.24,754.61,483.88Zm-13.2-3.33a24,24,0,0,1,5.46,3.85c-9.69-3.74-19.52-7-29.26-10.87a5.27,5.27,0,0,1,3.22-.71,9.23,9.23,0,0,0,2.8-.34c2.61-1,4.54.2,6.65,1.5C733.94,476.24,737.44,478.78,741.41,480.55ZM618.61,458c-.07-4.25-.41-8.51-.09-12.81a26.25,26.25,0,0,0-.38-7.93,8,8,0,0,1-.09-2.08,70.46,70.46,0,0,0,0-9.19c-.06-.48,0-1.14.53-1.31s.67.47,1,.74c2.78,2.36,5.23,5.08,8.12,7.36a5,5,0,0,1,2,5.44,24.32,24.32,0,0,0-.3,6.78c.18,5.1.05,10.19.35,15.29.16,2.62-.42,5.29-.1,7.95.22,1.77,1.34,2.67,2.65,2.58,1.73,0,3.51-1,4.17.06s-1,2.2-1.44,3.43a21.3,21.3,0,0,1-2.07,4.81,2,2,0,0,1-1.56,1.14c-3.91.59-7.79,1.27-11.69,1.9-.57.1-1,.18-1-.78,0-4.92-.2-9.83-.1-14.75C618.68,463.79,618.66,460.88,618.61,458ZM618,416.26a78,78,0,0,1,.14-8.09c0-1.06.36-1.56,1.53-.89,3.05,1.76,5.81,4,9.07,5.42a1.38,1.38,0,0,1,.81,1.2,122.57,122.57,0,0,1,0,15.45c-2.1-2.42-4.94-3.88-7-6.33a14.05,14.05,0,0,0-3-2.45C617.83,419.38,618.09,417.72,618,416.26Zm18,50.14a1.44,1.44,0,0,0-.75.11c-2,.66-2.3.31-2.2-1.83.26-5.11.43-10.22.59-15.33.11-3.54-.53-7.07-.14-10.55,4.13,2,6.77,5.46,10.15,8,1.15.89,1.5,2.1.88,3.91-1.47,4.33-3.61,8.4-4.86,12.8C639.1,465.42,638.47,467.08,636,466.4Zm-2.45-49.76c-.22-.61.66-.45,1-.24,3.39,2.4,7.19,4.12,10.72,6.3,3,1.86,5.89,4,9.25,5.33,3.09,1.23,5.45,3.74,8.38,5.35,6.76,3.71,13.2,8,20,11.69,2.94,1.62,5.56,3.86,8.43,5.58,3,1.81,6.08,3.68,9.23,5.32a1.57,1.57,0,0,1,1,1.11c-3.54.61-7,1.2-10.55,1.62a39,39,0,0,0-6.58,1,5.17,5.17,0,0,1-3.28-.42c-6.48-2.67-13-5.21-19.53-7.78-4-1.57-8.19-2.6-12-4.63a16.46,16.46,0,0,1-3.82-2.74c-3.73-3.71-7.62-7.23-11.59-10.68a2.52,2.52,0,0,1-.74-2.05c0-3.69-.08-7.39-.14-11.08C633.21,419.11,634,418,633.52,416.64Zm0-34.1c-.11-3.5.11-7,.12-10.52,0-4.55-.28-9.13.06-13.66a105.47,105.47,0,0,0,.21-12.05c-.16-4,.08-8-.17-11.95a2.54,2.54,0,0,1,.81-2.45c.63-.54.73-1.71,1-2.61.07-.22,0-.69-.05-.71-3.25-.87-1.51-3.37-1.54-5.11-.08-4.15.35-8.31.23-12.46s-.11-8.23-.16-12.35c0-1.11.34-1.3,1.38-1.41,3.65-.4,7.28-1,10.91-1.47,4.89-.67,9.8-1.22,14.67-2,4.19-.67,8.48-.33,12.61-1.22a89.85,89.85,0,0,1,10.66-1.38c2.45-.23,4.83-1,7.35-.92a37.78,37.78,0,0,0,6.38-.82c4.64-.69,9.27-1.59,13.93-2,5.5-.51,10.91-1.63,16.4-2.18,2.38-.24,4.75-.61,7.11-1,1.16-.18,1.74,0,1.68,1.39-.08,1.69.12,3.4.22,5.4-.41,6,.19,12.3.14,18.6,0,2.17-.56,4.34-.39,6.55.5,6.41-.12,12.85.38,19.27.18,2.4-.5,4.88-.19,7.25.35,2.74-.06,5.42-.13,8.1-.17,6,.58,11.95,0,17.93-.25,2.51.77,5,.38,7.53-.73,4.78-.08,9.6-.27,14.41-.22,5.45.36,10.94.43,16.41,0,2.15-.43,4.28-.43,6.47,0,1.67.25,3.32.21,5-.15,5.87.14,11.74,0,17.61-.1,3.56.5,7.15-.31,10.69a2.77,2.77,0,0,0,.16,1.12c.65,3.14-.12,4-3.19,4.41-3.63.45-7.22,1.3-10.85,1.75-4.26.52-8.58.78-12.73,1.81-3.05.75-5-1-7.2-2.25-3.59-2-7.19-4.08-10.64-6.35-5.34-3.51-11.2-6.16-16.3-10.08a26.79,26.79,0,0,0-6-3.24,11.29,11.29,0,0,1-3-1.77c-2.8-2.4-6.37-3.48-9.23-5.72a44.62,44.62,0,0,0-8.58-5.24c-5.37-2.54-9.61-6.81-15-9.2a1,1,0,0,1-.68-1c-.32-4.61-.21-9.23-.37-13.84C633.37,392.37,633.68,387.46,633.53,382.54Zm41,78.35a25.64,25.64,0,0,1-8.82,1.6,108.51,108.51,0,0,0-12.94,1.79c-2.9.54-5.87.89-8.8,1.38-1,.17-1.21-.15-1.07-1.1a11.7,11.7,0,0,1,1.51-4.06c1.45-2.59,2.31-5.43,3.52-8.12.78-1.76,1.4-1.83,2.78-1.23,5.89,2.58,11.79,5.14,17.87,7.27C670.59,459.11,672.51,460.07,674.54,460.89ZM637.39,478.6c1.08-2.81,2.12-5.64,3.2-8.45a1.07,1.07,0,0,1,.65-.6c2-.34,4.1-.7,6.16-.9,5-.49,10-.7,14.78-1.93a69.9,69.9,0,0,1,14.71-2.19,13.86,13.86,0,0,0,3-.59c2.09-.58,3.87.25,5.64,1.13a43.66,43.66,0,0,0,7.5,2.63,80,80,0,0,1,8.33,3.13c.1,0,.17.18.31.36a4.37,4.37,0,0,1-3,.86A67.24,67.24,0,0,0,688,473.22c-3.49.52-7,.85-10.52,1.21-4.43.46-8.8,1.31-13.17,2.18-3.39.68-6.88.9-10.29,1.51-2.68.47-5.39.35-8.07.56a78.64,78.64,0,0,0-7.82.91C637.28,479.74,637.1,479.37,637.39,478.6Zm54.81-14.86c-.63-.21-.57-.7-1.44-1.15l11.69-1.53a14.36,14.36,0,0,0,3-.52,3,3,0,0,1,3,.44c2,1.5,4.34,2.31,6.33,3.65s4.42,2.62,6.77,4.15c-3.18.44-6.15.67-9,1.31s-5.32-1.07-7.87-1.85C700.39,467,696.36,465.16,692.2,463.74ZM617.5,317.28c.27-3.35.36-6.75.36-10.12a76.84,76.84,0,0,0-.28-9,43.47,43.47,0,0,1,.13-5.6c0-2.23,0-4.44-.07-6.67-.17-3.58.43-4.21,4.08-4.46,6.28-.43,12.46-1.52,18.67-2.46,4.75-.72,9.54-1.18,14.31-1.8,2.54-.33,5.06-.95,7.61-1.11,4.42-.27,8.74-1.29,13.18-1.58,4-.27,8-1.05,12.08-1.58,4.79-.63,9.6-1.12,14.36-2,3.1-.58,6.23-1.06,9.37-1.5a75.74,75.74,0,0,1,10.28-1.06c4.15,0,8.19-.86,12.28-1.31,3.58-.4,7.14-.93,10.7-1.46,1.41-.21,2.83-.46,4.22-.74s1.88-.29,1.85,1.34c-.08,4.67.15,9.34.06,14-.05,2.86-.05,5.76,0,8.63.08,4.25.41,8.52.1,12.82a27.32,27.32,0,0,0,.37,7.94,7,7,0,0,1,.1,1.89,165.35,165.35,0,0,0-.12,17.1c.23,4.35-.2,8.65-.21,13,0,3.59.15,7.2.27,10.8.16,4.52.21,9.05,0,13.57-.19,4.92,0,9.84-.17,14.76-.15,4.19.23,8.43.22,12.65,0,3.75,0,7.52.15,11.26.12,4.48.14,9,.19,13.43.07,6.44.32,12.87-.06,19.32a67.8,67.8,0,0,0,.3,12.08,30.9,30.9,0,0,1-.27,3.93c0,2.54-.11,5.07.06,7.61.24,3.58-.42,4.22-4.06,4.47-6.28.43-12.48,1.44-18.68,2.48a3.29,3.29,0,0,1-2.32-.51c-4-2.42-8-4.74-12-7.09-.42-.25-.87-.43-1.47-.72,3.63-1.4,7.37-1.32,11-1.88,5.19-.81,10.41-1.46,15.6-2.29,1-.15,1.56-.82,1.5-2.18-.27-5.64-.24-11.3-.49-16.94-.31-7.13.36-14.25.18-21.38-.19-7.61.15-15.23.1-22.85,0-7.94.11-15.89-.15-23.84-.16-4.86.16-9.73.35-14.6.06-1.52-.28-3-.31-4.51-.09-4.12-.09-8.25-.25-12.37a48.76,48.76,0,0,1,.15-9.43c.5-3.13,0-6.28,0-9.43q.09-11.14,0-22.3c0-4.5,0-9,.34-13.49a2.71,2.71,0,0,0-1.35-2.54c-.76-.45-1.37.35-2,.67-1.79.84-3.79.57-5.67,1-4.23.92-8.58.63-12.85,1.18-4,.52-8,1.3-11.95,1.91-1.56.23-3.15.22-4.71.43-6.63.86-13.3,1.43-19.88,2.85-3.19.68-6.6.69-9.85,1.14-2.88.4-5.88.29-8.69,1.3-2.33.85-4.82.77-7.25.88a34,34,0,0,0-5,.49c-5.15,1-10.36,1.34-15.55,2-1.3.17-2.6.42-3.91.61s-1.86.85-2,2.36a168.11,168.11,0,0,0-.41,22.22c.25,8,.34,16.09-.18,24.14-.38,5.76,0,11.53.16,17.3.08,3.63-.08,7.28,0,10.93a124,124,0,0,1-.19,13.22c-.07,1,.29,1.95.24,3-.27,5.47-.3,10.94-.82,16.4-.16,1.72.4,3.48,0,5.43-2.91-1.58-5.84-2.9-8.32-5a4,4,0,0,0-1.39-.92c-1.2-.36-1.52-1.27-1.51-2.51,0-3-.26-6-.07-9,.3-4.65-.16-9.29.1-13.95.15-2.8-.11-5.72-.06-8.57.13-6.48-.19-12.95-.22-19.43,0-7.1-.25-14.19-.34-21.29,0-1.41.13-2.83.21-4.25.5-.32.9.12,1.21.3,1.41.78,1.49-.35,1.91-1.15s.54-1.67-.58-1.82C617.7,321.11,617.3,319.79,617.5,317.28Zm-36.3,66.55c3.34,2.08,6.51,4.43,9.87,6.47s6.6,4.27,10,6.07c3.11,1.63,6,3.68,9.06,5.24A7.22,7.22,0,0,1,614.6,409a15.66,15.66,0,0,0,.54,5.64,1.76,1.76,0,0,1-.42,1.54c-.56.47-.8-.37-1.12-.66-3.36-3.07-6.66-6.21-10-9.33-2.28-2.14-5-3.84-7.17-6.17-2.9-3.17-6.38-5.69-9.48-8.62-3.29-3.1-6.83-6-10.29-8.93a1.16,1.16,0,0,1-.59-1A50.59,50.59,0,0,1,581.2,383.83Zm-14.82-5.65c3.75,3.9,7.92,6.46,11.36,9.89,3.85,3.83,8,7.32,12.12,10.88,3.85,3.35,7.42,7,11.26,10.4,1.49,1.31,3.18,2.44,4.76,3.68,2.25,1.76,4.11,4,6.36,5.67,3,2.26,2.8,5.16,2.57,8.19a102.33,102.33,0,0,0,0,14c.26,4.39-.06,8.73,0,13.08.09,3.72-.35,7.46-.18,11.19a79.71,79.71,0,0,1,0,11.87c-.15,1.41.36,2.79.26,4.25a3.86,3.86,0,0,1-.51,2.29,1.81,1.81,0,0,0,.41,2.49c.56.56,1.2,1.65,2.36.94,2.81-1.71,6-1.4,9.08-1.82a32,32,0,0,0,4.89-.49l-23.6,57.62C593.88,487.51,579.82,433.25,566.38,378.18Zm46.43,162.19c-.42-.41-.07-.78.11-1.2q1.49-3.55,2.91-7.14,2.88-7.32,5.73-14.65c1.49-3.83,2.9-7.7,4.44-11.5,1.48-3.64,3-7.32,4.68-10.88a64.78,64.78,0,0,0,2.94-7.66c.9-2.7,1.48-3.28,4.36-3.66,7-.95,14.06-2.06,21.06-3.28,2.55-.45,5.18-.38,7.75-.66,2.37-.26,4.75-.74,7.07-.91,3.52-.26,7-1,10.5-1.21,4.12-.24,8.15-1.26,12.22-1.9,3.43-.54,6.94-.54,10.37-1.07,4.35-.66,7.94,1.37,11.72,2.84,2.28.89,4.58,1.7,6.86,2.57l20.52,7.83c-3.75,1.41-7.33,2.56-10.72,4.1-4.27,1.94-8.67,3.55-13,5.29q-8.61,3.48-17.33,6.64c-6,2.16-12,4.27-17.78,6.81-3.82,1.67-7.69,3.27-11.56,4.81-3.52,1.39-7.21,2.46-10.62,4.11-3.91,1.9-8,3.45-11.94,5.16a118.27,118.27,0,0,1-11.27,4.11c-2.4.77-4.46,2.25-6.79,3.1-5,1.82-9.86,4-15,5.56-2.15.66-4.19,1.67-6.29,2.52C613.47,540.22,613.23,540.77,612.81,540.37ZM740.2,498.92a38.22,38.22,0,0,0-4.3,5,9.18,9.18,0,0,1-1.79,1.56c-3.81,3.59-7,7.78-10.71,11.44-2.29,2.25-4.27,4.78-6.59,7s-4.24,4.64-6.3,7-4.73,4.42-6.71,6.89c-4.41,5.48-9.7,10.1-14.49,15.19-4.24,4.51-8,9.45-12.25,13.89a1.42,1.42,0,0,1-1.68.51c-3.4-1.35-6.71-3-10.22-3.94-3.68-.93-7.06-2.55-10.58-3.79-4.36-1.54-8.9-2.53-13.1-4.54-5.46-2.6-11.31-4.25-17-6.29-3.19-1.15-6.17-3-9.61-3.44-.57-.08-1-.53-1.35-1.2,45-17.48,89.65-35.18,134.09-53.48.14.18.27.37.41.56C745.41,493.83,742.75,496.33,740.2,498.92Z"/><path class="cls-12" d="M557.28,284.8c.87-1.74,1.57-3.77.18-5.2s-3.56-.52-5.38-.12a3.55,3.55,0,0,0-2.86,3.12,19.56,19.56,0,0,0,0,5.24,51.89,51.89,0,0,0,1.36,10.38c.21.86.57,2.11,1.73,1.78.94-.27,1.2-1.45.93-2.42-.19-.7,0-1.41-.18-2-.4-1.4.42-1.57,1.38-1.57,2.71,0,4.38-1.53,5.55-3.74C561.42,287.57,560.25,285.14,557.28,284.8ZM552.34,283c.45-.91,1.33-.87,2.37-.8-.67.89-1.11,1.74-2.1,1.74C552.27,284,552.21,283.3,552.34,283Zm1,8.49c-1.09-.23-.95-1.28-1-2.12s.18-1.2,1.11-1.11a16,16,0,0,0,2-.24,20.07,20.07,0,0,1,2,.11C557.13,290,554.84,291.86,553.31,291.53Z"/><path class="cls-12" d="M575.26,303.35c1.5-.41,1.24-2,1.86-2.92,0-.66-3.35-2.92-4.07-2.59-1.23.56-1.21,2.06-1.78,3.12C571.15,301.2,574.74,303.49,575.26,303.35Z"/><path class="cls-12" d="M605.68,318c1.29-.1,1.69-2,1.61-2.75-.19-1.76-2.21-2.09-3.59-2.32-1.63-.27-1.42,1.71-2,2.66C601.28,316.17,603.55,317.68,605.68,318Z"/><path class="cls-12" d="M583,306.94c1.48-.38,1.3-1.72,1.87-2.52.43-.61.3-.95-.48-1.22-1-.33-1.93-.93-2.93-1.3-.38-.14-1-.74-1.28,0-.39,1-1.66,2.2-1.09,2.81C580.13,305.77,581.76,306.26,583,306.94Z"/><path class="cls-12" d="M598.11,314.34c.95.06,1-1.42,1.46-2.19a8,8,0,0,0,.53-1.4c-1.43-.07-2.39-.88-3.52-1.26-.39-.13-.8-.91-1.19-.06s-1.61,2.22-1.06,3A5.12,5.12,0,0,0,598.11,314.34Z"/><path class="cls-12" d="M590.47,310.45c1.62.21,1.8-1.68,1.77-2.45-.07-1.76-2-1.69-3.24-2.37a2,2,0,0,0-1.87,2.52C587.38,309.73,589.08,310.28,590.47,310.45Z"/><path class="cls-12" d="M567.79,299.31c1.3,0,1-1.75,1.84-2.66-.7-.56-1.26-1.19-2.18-1.22s-1.77.49-1.72,1.55A2.27,2.27,0,0,0,567.79,299.31Z"/><path class="cls-12" d="M208.51,529.64a82,82,0,0,1-.21-9.78c.26-3.12.18-6.23.22-9.33,0-4.61-.33-9.23-.41-13.84,0-2.78.35-5.57.2-8.34-.19-3.75-.3-7.52-.22-11.23.12-5.62,0-11.23-.34-16.81-.26-4.61-.64-9.22-.47-13.83.2-5.61-.66-11.17-.41-16.8.24-5.09-.18-10.22,0-15.34.12-2.75.15-2.74,3.16-3.08.66-.08,1.63,0,1.69-.84a5,5,0,0,0-.5-2.91c-.26-.41-1.51-.24-2.3.14a4.63,4.63,0,0,1-1.48.34c-.4.05-.77-.13-.68-.65.43-2.33-.31-4.62-.25-6.94.12-4.52.26-9,.18-13.54-.15-8.65-.44-17.29-.68-26.12a13,13,0,0,0,.05-1.49c-.1-1.38-.69-2.62-2.22-2.43-1.93.23-3.76-.29-5.6-.47-5.91-.59-11.87-.91-17.75-1.16-8.1-.36-16.16-1.15-24.24-1.59-4.61-.24-9.23-1.38-13.79-1.12-5.64.33-11.14-.66-16.7-.86-7.08-.25-14.17-.67-21.23-1.41-6.09-.64-12.24-.77-18.36-1.07-.82,0-1.82-.36-2.39.67-.7,1.27-1.5,2.48-1.27,4a29,29,0,0,1,.33,3.35c.1,3.55,0,7.11.25,10.65.29,4.42.11,8.84.18,13.26.06,3.48-.29,6.95-.14,10.41.1,2.34.08,4.7,0,7-.2,6.19-.06,12.37.3,18.52.24,4,.3,8.1.56,12.14A160.14,160.14,0,0,1,84,446c-.25,6.35.4,12.64.56,19,.1,4.2.26,8.4.16,12.61-.15,6-.57,12.07,0,18.12.44,4.86-.13,9.77-.07,14.66.05,4,.86,8,.65,12a1.76,1.76,0,0,0,1.62,1.85c2.33.13,4.57,1.07,6.91.85a63.84,63.84,0,0,1,11,.27c6.37.48,12.72,1.36,19.13,1.68,1.53.08,3-.51,4.56,0a15.22,15.22,0,0,0,4.55.6c3.53.23,7.09.27,10.6.71,3.15.4,6.3.4,9.46.52,2.87.11,5.75.2,8.61.51,4,.43,8,.7,12,1.12,3.23.34,6.47.17,9.7.53,2.42.27,4.83.7,7.24.9,4.89.41,9.82.4,14.73.65C208,532.71,208.6,532.21,208.51,529.64Zm-5.4-.35a112.22,112.22,0,0,0-17-1.42c-4.19,0-8.31-.82-12.46-1.08-3.3-.2-6.6-.27-9.89-.53-2.24-.17-4.51-.45-6.72-.51-6.15-.16-12.21-1.26-18.36-1.44a136.26,136.26,0,0,1-16-1.12c-1.89-.27-3.86,0-5.78-.14-4.27-.28-8.56-.44-12.78-1.06-2.91-.42-5.84-.22-8.73-.67-1.91-.3-3.84-.39-5.76-.58-.63-.06-.72-.34-.72-1,0-4.31,0-8.63-.37-12.9-.38-3.86.25-7.68-.06-11.7.53-4.58-.43-9.27-.71-14-.21-3.72.26-7.49,0-11.21-.36-6,.2-12-.19-18a113.47,113.47,0,0,1,0-13.3,38.84,38.84,0,0,0-.25-7.84c-.46-2.93.18-5.78.07-8.67-.22-5.7,0-11.4-.22-17.11-.12-3.56.19-7.16,0-10.73s-.35-7.06-.69-10.59c-.3-3.18.33-6.46,0-9.63-.73-6.71.36-13.41-.29-20.11-.09-.95.33-1.51,1.45-1.4,4.29.42,8.57.85,12.87,1.14,3.42.24,6.86.08,10.28.45,4.82.53,9.66,1.06,14.5,1.29s9.85.46,14.77.85c4.16.32,8.33.59,12.5.87,6.18.42,12.36.93,18.54,1.27,7.41.42,14.81.93,22.22,1.35a59.72,59.72,0,0,0,7.08.32c1-.06,1.59.44,1.72,1.85.57,6.3,0,12.58.2,18.87a22.62,22.62,0,0,1,.28,3.31c-.09.82.48,1.65-1,2-1,.23-.7,2.61.25,3.16a1.52,1.52,0,0,1,.84,1.38c.06,4.69.13,9.38.18,14.07,0,.63.15,1.25.19,1.86.11,1.38,0,2.74-2.05,2.5-1.3-.16-1.68.45-1.6,1.8s.77,1.66,1.9,1.42,1.6-.24,1.63,1.27c.13,5.51.36,11,.83,16.52.28,3.34-.41,6.61-.21,9.93.24,4,.42,8.09.45,12.13,0,4.93-.35,9.87-.17,14.8.15,4.08.09,8.15.17,12.23.08,4.45-.12,8.91.11,13.34.17,3.35.49,6.67.34,10-.08,1.83.1,3.66.05,5.49a117.59,117.59,0,0,0,.66,13c.18,2.27-.08,4.51.1,6.76C205.4,529.49,204.23,529.47,203.11,529.29Z"/><path class="cls-12" d="M211.77,391.93c1.72-.2,1.69-2.11,1.45-2.8-.65-1.85-2.79-1.17-4.22-1.45-1.16-.22-.58,1.47-.94,2.12C208.07,391,210,392.13,211.77,391.93Z"/><path class="cls-12" d="M663.08,368.78c-3.12,3.94-4.18,8.9-7,12.93a1.82,1.82,0,0,0,.17,2.26,1.69,1.69,0,0,0,2.15.66,9.55,9.55,0,0,1,4.89-.05c3.21.49,6.47.29,9.67,1a31.23,31.23,0,0,0,5,.52,11.81,11.81,0,0,0,1.31.19c2.76.16,5.4,1.07,8.14,1.34,4.48.44,9,.71,13.44,1.28a6.16,6.16,0,0,0,4.54-1,58.18,58.18,0,0,1,7.73-4.61,110.54,110.54,0,0,0,10.67-6.15c2.46-1.47,2.57-3.12.87-5.42a21.62,21.62,0,0,1-2.51-3.3c-1.94-4-5.23-7.1-7.5-10.94-3.23-5.49-7.18-10.56-10.83-15.8-1.51-2.16-3-4.31-4.55-6.47l-6.32-9.1c-.55-.79-.79-1.83-1.63-2.39-2.49-1.67-4.67-.78-6,1.91-3.06,6.26-6.57,12.31-9.45,18.65-2.22,4.89-5.41,9.25-7.38,14.24-.44,1.11-1.24,2-1.72,3.12C665.66,364.06,664.72,366.71,663.08,368.78Zm27.3-40.86c3.74,6.11,7.64,11.56,11.39,17.1,2.91,4.32,5.54,8.84,8.73,13,2.89,3.76,5.38,7.83,8.07,11.76.19.28.38.58.22.87a1.15,1.15,0,0,1-1.14.53c-2.54-.27-3.82,1.62-5.44,3,2.17-.16,4,.81,6.65,1.06l-15.18,9.15c-.43-1.32-1.17-2.57-1.19-3.84,0-2.58-1-4.93-1.33-7.43-.28-2.23-.33-2.23,1.25-4-3.12-.17-2.92-2.63-3.47-4.66-1.17-4.33-2.42-8.64-3.5-13-.82-3.28-1.46-6.64-2.2-10-.78-3.52-1.69-7-2.57-10.5A6.08,6.08,0,0,1,690.38,327.92Zm-20,34.24c2.44-4.31,4.12-9,6.72-13.16s4-8.72,6.85-12.66a29.72,29.72,0,0,0,2.16-4.55c.15-.3.17-.82.66-.81s.45.43.55.81c1.71,6.48,3.07,13,4.66,19.56,1.88,7.69,3.13,15.54,4.9,23.26a63.31,63.31,0,0,0,2.74,9.84c-5.58.05-10.88-1.25-16.3-1.23s-10.71-1.14-16.21-1.68c.46-1,1.57-.44,1.74-1.43a7,7,0,0,0-3.27-1.62c-1-.26-2.21.66-3.56.54C664.62,373.22,667.28,367.57,670.35,362.16Z"/><path class="cls-12" d="M665.87,347.65a4.1,4.1,0,0,0,.36-.28c1.52-1.43,1.32-3.13-.49-4a13.53,13.53,0,0,0-2.4-1.07c-.43-.12-1-1-1.4-.18s-1.31,1.75-1.1,2.9C660.94,345.51,665.22,347.72,665.87,347.65Z"/><path class="cls-12" d="M653.16,341.18a9.29,9.29,0,0,0,4.38,1.91c.72-.24.73-1.23,1.11-1.93.22-.41.54-1-.13-1.23-1.28-.36-2.31-1.25-3.63-1.59-.73-.19-.95,0-1.08.56C653.6,339.69,652.29,340.48,653.16,341.18Z"/><path class="cls-12" d="M638.23,333.92a10.21,10.21,0,0,0,3,1.41,2,2,0,0,0,2.41-2,4.35,4.35,0,0,0-.68-.59c-1-.63-2.05-1.23-3.08-1.82-.47-.27-1.08-.81-1.27.19S637.09,333,638.23,333.92Z"/><path class="cls-12" d="M649.2,339.48c.55,0,1.65-1.46,1.79-2.45.07-.46-2.46-2.2-3.34-2.25-1.42-.08-1.58,1.08-1.81,2C645.67,337.46,648.22,339.41,649.2,339.48Z"/><path class="cls-12" d="M625,327.55a4.93,4.93,0,0,1,.66.3c2.12,1.28,3.25.7,3.38-1.93,0,0,0-.38-.19-.47-1.32-.71-2.65-1.38-4-2-.11-.06-.34,0-.47.14A2.27,2.27,0,0,0,625,327.55Z"/><path class="cls-12" d="M97.54,368.75q0,4,0,8c0,3.3.21,6.61.22,9.91,0,5.38-.06,10.76.49,16.12a60.1,60.1,0,0,1,.15,10.39c-.18,2.72.14,3.67,2.56,3.67,4.93,0,9.78.81,14.68,1.05a52.75,52.75,0,0,1,7.66.61c3.65.71,7.33.63,11,1,2.8.27,5.72-.48,8.42,1,1,.55,2.74-.86,2.58-2a67.24,67.24,0,0,1-.32-8.86c-.05-4.6-.3-9.2-.18-13.81.22-8.34-1.32-16.65-.43-26,0-1.15-1.85-1.23-3.11-1.18-4.13.14-8.16-.74-12.27-.86-4.83-.15-9.68-.8-14.49-1.38-3.18-.39-6.36-.29-9.52-.59-1.7-.16-3.46.16-5.12-.87-1.19-.74-2.9.83-2.45,2.18A4.35,4.35,0,0,1,97.54,368.75Zm24.19,45.75c-4.51-.25-9-.91-13.48-1.1-.39,0-.79.08-1-.36-.25-.64.26-.87.65-1.2q5.76-4.83,11.49-9.72c1.62-1.37,3.1-2.89,4.74-4.24,1.24-1,1.84-.36,2.41.49,2.38,3.48,4.69,7,7,10.5,1.53,2.27,3.07,4.52,4.91,7.22C132.62,414.64,127.14,414.8,121.73,414.5ZM140.91,412c-2.32-3.14-4.58-5.95-6.56-8.95a84.42,84.42,0,0,0-5.58-8.32c-.69-.82-.2-1.58.3-2.35,3.5-5.25,7.83-9.89,11.54-15.64C139.83,388.76,141.18,400.22,140.91,412Zm-1.1-39.67a77.58,77.58,0,0,0-7.86,9.63c-1.91,2.75-4,5.33-6,8-.55.75-.85,1.26-2,.16-2.78-2.67-5.32-5.58-7.94-8.38a87,87,0,0,0-7.29-7.45c-1.65-1.39-2.59-3.3-4.23-4.5Zm-34.53,4.08c4,4.39,8.23,8.56,12.45,12.74,1.4,1.39,2.76,2.79,4.26,4.07.66.57.7,1.15-.14,1.83-3.94,3.17-7.9,6.33-11.69,9.68-2.48,2.2-5.24,4.08-7.82,6.54.17-12.74-.56-25.44-.82-38.29C103.23,373.47,104.17,375.15,105.28,376.37Z"/><path class="cls-12" d="M191.36,509.86a19.56,19.56,0,0,1-4.12-.16,90.35,90.35,0,0,0-13.65-1.39c-3.88,0-7.75-.66-11.63-.83-2.34-.09-4.68-.29-7-.32a87.52,87.52,0,0,1-11.58-1.31c-6.86-1-13.82-.72-20.73-1.19-4.7-.32-9.33-1.26-14.06-1.27-3.23,0-6.42-.77-9.68-.39a1.77,1.77,0,0,0-1.74,1.85c-.1,1.11.6,1.54,1.64,1.66,2.34.27,4.68.59,7,.89,3.31.38,6.64.27,9.94.5,4,.28,8.1.12,12.12.68,3.49.48,7,1.09,10.47,1.32,5.27.35,10.55.39,15.83.62,4.2.18,8.35,1,12.58,1.08a51.14,51.14,0,0,1,7.23.62,58.27,58.27,0,0,0,9.73.84,44.32,44.32,0,0,1,7.42.68,2.15,2.15,0,0,0,2.71-1.73C193.92,510.66,193,509.77,191.36,509.86Z"/><path class="cls-12" d="M191.1,493.1a21.22,21.22,0,0,1-4.5-.26c-3.53-.44-7-1.33-10.61-1.18a70.4,70.4,0,0,1-7.57-.49c-3.65-.23-7.3-.82-10.95-.76a93.21,93.21,0,0,1-10.18-.66c-2.73-.24-5.5-.49-8.16-.85-4-.54-8-.35-12-.63s-8.28-.55-12.38-1c-4.79-.57-9.61-.58-14.4-1-.25,0-.51,0-.76,0A1.86,1.86,0,0,0,97.31,488c-.17,1.41,1.12,1.41,1.91,1.59a77.09,77.09,0,0,0,11.33,1.21c7,.51,14,.3,20.94,1.5,6.06,1,12.28,1.07,18.46,1.25,2.25.06,4.51-.2,6.79.31a32.32,32.32,0,0,0,7.39.82,71.07,71.07,0,0,1,9.46.55,64.71,64.71,0,0,0,7,.84,49.49,49.49,0,0,1,10.18.79,3,3,0,0,0,2.72-1c.48-.42.37-1.1,0-1.71A2.24,2.24,0,0,0,191.1,493.1Z"/><path class="cls-12" d="M109.55,474c5.89.22,11.78.57,17.66.78,1.35.05,2.5.71,3.81.82,6.26.56,12.51,1,18.8,1.13a57.88,57.88,0,0,1,5.86.28c3.11.38,6.21,1.1,9.43.82a28.06,28.06,0,0,1,6.59.36,85.17,85.17,0,0,0,12,1.14c.28,0,.5-.17.86-.11,2,.35,4.08.68,6.14.84a2.08,2.08,0,0,0,2.32-1.75,1.81,1.81,0,0,0-1.88-2c-4.06.24-8-.71-12-1.22s-7.87-.19-11.8-.7a75.65,75.65,0,0,0-11.35-.73,77.77,77.77,0,0,1-12.13-1,88.83,88.83,0,0,0-12.78-1.06,119.35,119.35,0,0,1-14-.84c-5.75-.67-11.52-.76-17.27-1.26-.32,0-.63-.1-.95-.11-1.27,0-2.16.45-2.31,1.81-.18,1.56,1.21,1.48,2,1.68A58.64,58.64,0,0,0,109.55,474Z"/><path class="cls-12" d="M191.8,459.93c-3.73.26-7.36-.55-11-1.07-4.22-.6-8.47-.28-12.7-.85a82.65,82.65,0,0,0-11.12-.75,75.32,75.32,0,0,1-9.14-.64c-3.56-.44-7.14-.74-10.71-1.13-4-.44-8.12-.1-12.17-.41-4.83-.37-9.65-.94-14.48-1.35-3.55-.3-7.11-.52-10.67-.7-.81,0-1.76-.16-2.24.88-.68,1.51-.16,2.22,2.06,2.57,6.08,1,12.23,1.06,18.36,1.34,3.83.17,7.75,0,11.46.79,5.42,1.15,10.89,1,17,1.75a67.79,67.79,0,0,1,7.77.05c5.08.55,10.15,1.14,15.25,1.25,4.78.1,9.43,1.38,14.23,1.28a30.75,30.75,0,0,1,7.57.71,2,2,0,0,0,2.54-1.67A1.81,1.81,0,0,0,191.8,459.93Z"/><path class="cls-12" d="M98.72,440A67.33,67.33,0,0,0,110,441.12c5.6.31,11.2.51,16.8.83,1.53.09,2.92.67,4.4.82a145.14,145.14,0,0,0,18.63,1c5.4-.14,10.65,1.23,16.08,1.15s11.07,1.3,16.67,1.48a40.44,40.44,0,0,1,7.82.79,2.09,2.09,0,0,0,2.65-1.75c.06-1.21-1-2.11-2.47-2a13.39,13.39,0,0,1-4,0c-5.67-1.42-11.49-1.39-17.24-1.73-5-.29-9.94-.89-15-.75-5.38.15-10.71-1.18-16.09-1.64-4-.35-8-.21-12.05-.64s-8.22-.65-12.33-1c-4.67-.39-9.34-.8-14-1.2l0,.2c-.31,0-.63-.09-.94-.11-1.35-.1-2.3.43-2.4,1.84S97.88,439.82,98.72,440Z"/><path class="cls-12" d="M150.67,420.11c.22-.08.5,0,.32,0,3.5.22,4.28-.61,3.74-3.39-.14-.69-.27-1-1.07-.84a16.21,16.21,0,0,1-3.39.42c-1.65,0-1.81.81-1.61,2.19S149,420.78,150.67,420.11Z"/><path class="cls-12" d="M151.2,377.22a18.72,18.72,0,0,0,3.46,1.29,8.58,8.58,0,0,1,1.48-.16c1.41-.19.82-1.6,1.25-2.41.19-.35.42-.9-.25-1.08-1.58-.43-3.17-.84-4.76-1.22-.82-.2-1,.49-1,1C151.26,375.55,150.23,376.85,151.2,377.22Z"/><path class="cls-12" d="M193.77,410c-.5.09-1,.39-1.46.3-1.46-.28-1.65.46-1.49,1.43.06,2.38.2,2.48,2.42,2a18.54,18.54,0,0,1,1.84-.28c.88-.11,1.27-.45,1.2-1.47C196.11,409.51,196.18,409.5,193.77,410Z"/><path class="cls-12" d="M193.8,384c-1.29-.46-1.65,1.77-1.49,2.45.46,2,2.76.89,3.9,1.85,1.93,0,1.94-1.81,1.81-2.55C197.62,383.34,195.22,384.47,193.8,384Z"/><path class="cls-12" d="M159.83,418.65a8.43,8.43,0,0,1,1.84-.31c1.9.09,2.19-.79,1.78-2.43-.21-.83-.45-1.13-1.35-1.11s-1.76.37-2.62.3c-1.33-.11-1.58.45-1.43,1.62S158.13,419,159.83,418.65Z"/><path class="cls-12" d="M161.27,379.54c.59.13,1.21.32,1.81.46,2.41.58,2.51.51,2.76-1.91.24-.59,0-.81-.62-1.06-.95-.41-2-.43-2.9-.82-1.07-.45-1.64-.24-1.79.9C160.41,378,159.37,379.14,161.27,379.54Z"/><path class="cls-12" d="M177.53,383.38a29.94,29.94,0,0,1,2.89.79c.91.43,1.19.19,1.53-.63,1-2.35,1-2.34-1.55-2.76a10.35,10.35,0,0,1-1.68-.29c-1.45-.51-2,.06-2,1.44C176.26,382.85,177,383.17,177.53,383.38Z"/><path class="cls-12" d="M176,416c1,0,2-.27,3-.28,1.32,0,1.49-.59,1.29-1.69.24-1.6-.23-2.35-2-1.59a12.46,12.46,0,0,1-2.38.53c-.63.13-1.4.19-1.12,1.1C174.92,414.8,174.54,416,176,416Z"/><path class="cls-12" d="M171,381.9c2.06.48,2.69-.36,2.74-1.79,0-1-1.81-2.06-3.81-1.92-1.54.11-1.31,1.76-1.26,2.51C168.78,382.32,170.52,381.62,171,381.9Z"/><path class="cls-12" d="M168.78,417.37c2-.11,2.88-.69,2.8-2.11-.06-1.11-.53-2.07-1.69-1.58s-3.31-.86-3.19,1.63C166.73,416.08,166.23,417.72,168.78,417.37Z"/><path class="cls-12" d="M187.83,386.15c1.9.38,1-1.82,2-2.47-.47-1.71-2.26-1.52-3.1-1.57-1.33-.09-1.61,1.83-1.58,2.78C185.17,386.22,186.9,386,187.83,386.15Z"/><path class="cls-12" d="M183.67,414c-.24,1.43.73,1.08,1.45.83,2.66.09,2.51,0,2.37-2.58s-2.14-.9-3-.89C182.77,411.4,183.82,413.08,183.67,414Z"/><path class="cls-12" d="M691.21,372.11c.66-.26.47-.69.07-1.17-1.7-2.1-3.4-2.16-6.23-.05a12.57,12.57,0,0,1,1.49,1.16C688.09,373.64,689.66,372.71,691.21,372.11Z"/><path class="cls-12" d="M671.26,377.72c2.11,1.72,4,.23,6.1-.34-2-1.57-3.65-2.94-6-1.2C670.42,376.85,670.44,377.05,671.26,377.72Z"/><path class="cls-12" d="M684.44,374.57c-3.2-2.85-2.73-3.36-6.29-.75C680.06,375.29,682.07,376,684.44,374.57Z"/><path class="cls-12" d="M711,370.53c-3.85-1-5.91-.28-7.48,2.5C706.74,374.49,709,373,711,370.53Z"/></g></svg>